<svg xmlns="http://www.w3.org/2000/svg" xmlns:xlink="http://www.w3.org/1999/xlink" width="1080" zoomAndPan="magnify" viewBox="0 0 810 809.999993" height="1080" preserveAspectRatio="xMidYMid meet" version="1.0"><defs><clipPath id="435608ae44"><path d="M 151.144531 0 L 658.894531 0 L 658.894531 630 L 151.144531 630 Z M 151.144531 0 " clip-rule="nonzero"/></clipPath><clipPath id="049fdd63c9"><path d="M 362.796875 267.808594 L 447.203125 267.808594 L 447.203125 352.210938 L 362.796875 352.210938 Z M 362.796875 267.808594 " clip-rule="nonzero"/></clipPath><clipPath id="2f52a56538"><path d="M 405 267.808594 L 418.9375 276.363281 L 434.839844 280.167969 L 438.648438 296.070312 L 447.203125 310.007812 L 438.648438 323.945312 L 434.839844 339.851562 L 418.9375 343.65625 L 405 352.210938 L 391.0625 343.65625 L 375.160156 339.851562 L 371.351562 323.945312 L 362.796875 310.007812 L 371.351562 296.070312 L 375.160156 280.167969 L 391.0625 276.363281 Z M 405 267.808594 " clip-rule="nonzero"/></clipPath><clipPath id="61b2dd18af"><path d="M 260 449 L 343 449 L 343 531 L 260 531 Z M 260 449 " clip-rule="nonzero"/></clipPath><clipPath id="15ba19c9c1"><path d="M 286.085938 547.53125 L 243.734375 474.523438 L 316.742188 432.171875 L 359.097656 505.179688 Z M 286.085938 547.53125 " clip-rule="nonzero"/></clipPath><clipPath id="ad24d69ce0"><path d="M 264.910156 511.027344 L 265.316406 494.679688 L 260.628906 479.011719 L 272.476562 467.738281 L 280.238281 453.347656 L 296.585938 453.75 L 312.253906 449.0625 L 323.527344 460.910156 L 337.917969 468.675781 L 337.515625 485.023438 L 342.203125 500.6875 L 330.355469 511.960938 L 322.589844 526.355469 L 306.242188 525.949219 L 290.578125 530.636719 L 279.304688 518.789062 Z M 264.910156 511.027344 " clip-rule="nonzero"/></clipPath><clipPath id="2cb1833b66"><path d="M 467 451 L 550 451 L 550 534 L 467 534 Z M 467 451 " clip-rule="nonzero"/></clipPath><clipPath id="57176449e6"><path d="M 450.550781 507.800781 L 493.246094 434.992188 L 566.054688 477.683594 L 523.359375 550.496094 Z M 450.550781 507.800781 " clip-rule="nonzero"/></clipPath><clipPath id="1b521224c3"><path d="M 471.898438 471.394531 L 486.328125 463.699219 L 497.65625 451.90625 L 513.300781 456.667969 L 529.648438 456.339844 L 537.34375 470.765625 L 549.140625 482.09375 L 544.378906 497.738281 L 544.707031 514.089844 L 530.277344 521.785156 L 518.949219 533.578125 L 503.304688 528.820312 L 486.957031 529.148438 L 479.261719 514.71875 L 467.464844 503.390625 L 472.226562 487.746094 Z M 471.898438 471.394531 " clip-rule="nonzero"/></clipPath><clipPath id="cb28c4dff1"><path d="M 44.722656 49.523438 L 765.472656 49.523438 L 765.472656 810 L 44.722656 810 Z M 44.722656 49.523438 " clip-rule="nonzero"/></clipPath><clipPath id="a1a5e14556"><path d="M 25 229.183594 L 785 229.183594 L 785 630.433594 L 25 630.433594 Z M 25 229.183594 " clip-rule="nonzero"/></clipPath><clipPath id="3bcbb84964"><path d="M 243.046875 267.808594 L 567 267.808594 L 567 591.808594 L 243.046875 591.808594 Z M 243.046875 267.808594 " clip-rule="nonzero"/></clipPath><clipPath id="d423079e3d"><path d="M 235.628906 260.390625 L 574.628906 260.390625 L 574.628906 599.390625 L 235.628906 599.390625 Z M 235.628906 260.390625 " clip-rule="nonzero"/></clipPath></defs><g clip-path="url(#435608ae44)"><path fill="#e0c71e" d="M 534.714844 136.730469 C 496.296875 90.019531 455.382812 45.605469 411.980469 3.484375 C 411.324219 2.867188 410.601562 2.34375 409.808594 1.917969 C 409.011719 1.488281 408.175781 1.175781 407.300781 0.96875 C 406.421875 0.765625 405.535156 0.679688 404.632812 0.714844 C 403.734375 0.746094 402.851562 0.894531 401.992188 1.160156 C 401.132812 1.429688 400.320312 1.804688 399.558594 2.285156 C 398.800781 2.769531 398.117188 3.34375 397.507812 4.007812 C 396.898438 4.671875 396.386719 5.40625 395.976562 6.203125 C 395.5625 7.003906 395.261719 7.847656 395.070312 8.726562 C 394.804688 9.957031 369.304688 126.273438 304.207031 229.183594 C 299.796875 216.832031 296.085938 204.277344 293.074219 191.511719 C 292.886719 190.632812 292.585938 189.789062 292.171875 188.988281 C 291.761719 188.1875 291.25 187.453125 290.644531 186.789062 C 290.035156 186.125 289.351562 185.550781 288.589844 185.066406 C 287.828125 184.582031 287.019531 184.207031 286.160156 183.9375 C 285.296875 183.671875 284.417969 183.523438 283.515625 183.488281 C 282.617188 183.457031 281.726562 183.539062 280.847656 183.746094 C 279.972656 183.949219 279.136719 184.261719 278.339844 184.691406 C 277.546875 185.117188 276.824219 185.640625 276.167969 186.257812 C 254.285156 207.449219 233.679688 229.816406 214.355469 253.363281 C 172.417969 304.691406 151.144531 346.097656 151.144531 376.40625 C 151.144531 516.378906 265.023438 630.257812 404.996094 630.257812 C 544.972656 630.257812 658.847656 516.378906 658.847656 376.40625 C 658.847656 318.183594 617.078125 237.550781 534.714844 136.730469 Z M 404.996094 609.949219 C 276.21875 609.949219 171.453125 505.183594 171.453125 376.40625 C 171.453125 330.394531 239.589844 251.839844 277.753906 213.179688 C 281.882812 227.441406 286.75 241.453125 292.351562 255.203125 C 292.699219 256.050781 293.152344 256.839844 293.710938 257.566406 C 294.269531 258.289062 294.917969 258.929688 295.648438 259.480469 C 296.382812 260.03125 297.171875 260.472656 298.027344 260.808594 C 298.878906 261.148438 299.761719 261.363281 300.671875 261.460938 C 301.582031 261.558594 302.488281 261.535156 303.394531 261.386719 C 304.296875 261.242188 305.167969 260.976562 306 260.59375 C 306.832031 260.210938 307.601562 259.726562 308.300781 259.136719 C 309.003906 258.546875 309.613281 257.875 310.132812 257.121094 C 370.144531 169.667969 400.25 70.3125 410.644531 30.597656 C 460.222656 79.90625 638.542969 265.042969 638.542969 376.40625 C 638.542969 505.183594 533.777344 609.949219 404.996094 609.949219 Z M 404.996094 609.949219 " fill-opacity="1" fill-rule="nonzero"/></g><path fill="#e0c71e" d="M 468.714844 333.265625 C 450.984375 311.644531 432.074219 291.117188 411.980469 271.679688 C 411.277344 271.015625 410.496094 270.460938 409.636719 270.019531 C 408.777344 269.574219 407.871094 269.261719 406.921875 269.078125 C 405.972656 268.894531 405.015625 268.847656 404.054688 268.9375 C 403.089844 269.027344 402.160156 269.25 401.261719 269.605469 C 400.363281 269.960938 399.53125 270.433594 398.765625 271.027344 C 398.003906 271.621094 397.335938 272.308594 396.769531 273.089844 C 396.203125 273.875 395.757812 274.71875 395.429688 275.628906 C 395.105469 276.542969 394.914062 277.480469 394.855469 278.445312 C 394.816406 279.207031 390.628906 345.308594 367.832031 393.476562 C 363.316406 377.738281 359.074219 360.640625 359.011719 360.375 C 358.90625 359.945312 358.773438 359.527344 358.609375 359.113281 C 358.449219 358.703125 358.261719 358.304688 358.050781 357.914062 C 357.835938 357.527344 357.597656 357.15625 357.335938 356.800781 C 357.074219 356.445312 356.789062 356.109375 356.484375 355.789062 C 356.179688 355.46875 355.851562 355.171875 355.507812 354.894531 C 355.164062 354.617188 354.800781 354.367188 354.421875 354.136719 C 354.046875 353.90625 353.652344 353.703125 353.25 353.527344 C 352.84375 353.347656 352.429688 353.195312 352.007812 353.070312 C 351.582031 352.949219 351.152344 352.851562 350.714844 352.785156 C 350.277344 352.714844 349.839844 352.675781 349.394531 352.667969 C 348.953125 352.65625 348.515625 352.675781 348.074219 352.722656 C 347.632812 352.769531 347.199219 352.84375 346.769531 352.949219 C 346.339844 353.050781 345.917969 353.183594 345.507812 353.34375 C 345.09375 353.5 344.695312 353.6875 344.304688 353.898438 C 343.917969 354.109375 343.542969 354.34375 343.1875 354.605469 C 342.828125 354.863281 342.488281 355.144531 342.167969 355.449219 C 336.128906 361.175781 283.148438 412.363281 283.148438 446.59375 C 283.148438 448.589844 283.199219 450.582031 283.296875 452.574219 C 283.394531 454.566406 283.539062 456.554688 283.734375 458.539062 C 283.929688 460.523438 284.175781 462.503906 284.46875 464.472656 C 284.761719 466.445312 285.101562 468.410156 285.488281 470.367188 C 285.878906 472.324219 286.316406 474.269531 286.800781 476.203125 C 287.285156 478.136719 287.816406 480.058594 288.394531 481.964844 C 288.972656 483.875 289.601562 485.769531 290.273438 487.644531 C 290.945312 489.523438 291.660156 491.382812 292.425781 493.226562 C 293.1875 495.066406 293.996094 496.890625 294.847656 498.691406 C 295.699219 500.496094 296.597656 502.277344 297.535156 504.035156 C 298.476562 505.792969 299.460938 507.527344 300.484375 509.238281 C 301.507812 510.949219 302.574219 512.632812 303.683594 514.292969 C 304.792969 515.949219 305.941406 517.578125 307.128906 519.179688 C 308.316406 520.78125 309.542969 522.355469 310.808594 523.894531 C 312.074219 525.4375 313.375 526.945312 314.714844 528.425781 C 316.054688 529.902344 317.425781 531.34375 318.835938 532.753906 C 320.246094 534.164062 321.691406 535.539062 323.167969 536.878906 C 324.648438 538.21875 326.15625 539.519531 327.699219 540.785156 C 329.238281 542.050781 330.8125 543.277344 332.414062 544.464844 C 334.015625 545.652344 335.644531 546.800781 337.300781 547.910156 C 338.960938 549.015625 340.644531 550.082031 342.355469 551.109375 C 344.066406 552.132812 345.800781 553.117188 347.558594 554.058594 C 349.316406 554.996094 351.097656 555.894531 352.902344 556.746094 C 354.703125 557.597656 356.527344 558.40625 358.367188 559.167969 C 360.210938 559.933594 362.070312 560.648438 363.949219 561.320312 C 365.824219 561.992188 367.71875 562.617188 369.625 563.199219 C 371.535156 563.777344 373.457031 564.308594 375.390625 564.792969 C 377.324219 565.277344 379.269531 565.714844 381.226562 566.101562 C 383.183594 566.492188 385.144531 566.832031 387.117188 567.125 C 389.089844 567.417969 391.070312 567.664062 393.054688 567.859375 C 395.039062 568.054688 397.027344 568.199219 399.019531 568.296875 C 401.011719 568.394531 403.003906 568.445312 404.996094 568.445312 C 406.992188 568.445312 408.984375 568.394531 410.976562 568.296875 C 412.96875 568.199219 414.957031 568.054688 416.941406 567.859375 C 418.925781 567.664062 420.902344 567.417969 422.875 567.125 C 424.847656 566.832031 426.8125 566.492188 428.769531 566.101562 C 430.726562 565.714844 432.671875 565.277344 434.605469 564.792969 C 436.539062 564.308594 438.460938 563.777344 440.367188 563.199219 C 442.277344 562.617188 444.167969 561.992188 446.046875 561.320312 C 447.925781 560.648438 449.785156 559.933594 451.628906 559.167969 C 453.46875 558.40625 455.292969 557.597656 457.09375 556.746094 C 458.898438 555.894531 460.679688 554.996094 462.4375 554.058594 C 464.195312 553.117188 465.929688 552.132812 467.640625 551.109375 C 469.351562 550.082031 471.035156 549.015625 472.691406 547.910156 C 474.351562 546.800781 475.980469 545.652344 477.582031 544.464844 C 479.183594 543.277344 480.757812 542.050781 482.296875 540.785156 C 483.839844 539.519531 485.347656 538.21875 486.828125 536.878906 C 488.304688 535.539062 489.746094 534.164062 491.15625 532.753906 C 492.566406 531.34375 493.941406 529.902344 495.28125 528.425781 C 496.621094 526.945312 497.921875 525.4375 499.1875 523.894531 C 500.453125 522.355469 501.679688 520.78125 502.867188 519.179688 C 504.054688 517.578125 505.203125 515.949219 506.3125 514.292969 C 507.417969 512.632812 508.484375 510.949219 509.511719 509.238281 C 510.535156 507.527344 511.519531 505.792969 512.457031 504.035156 C 513.398438 502.277344 514.296875 500.496094 515.148438 498.691406 C 516 496.890625 516.808594 495.066406 517.570312 493.226562 C 518.335938 491.382812 519.050781 489.523438 519.722656 487.644531 C 520.394531 485.769531 521.019531 483.875 521.597656 481.964844 C 522.179688 480.058594 522.710938 478.136719 523.195312 476.203125 C 523.679688 474.269531 524.117188 472.324219 524.503906 470.367188 C 524.894531 468.410156 525.234375 466.445312 525.527344 464.472656 C 525.820312 462.503906 526.0625 460.523438 526.257812 458.539062 C 526.457031 456.554688 526.601562 454.566406 526.699219 452.574219 C 526.796875 450.582031 526.847656 448.589844 526.847656 446.59375 C 526.847656 418.609375 507.285156 380.480469 468.714844 333.265625 Z M 404.996094 548.136719 C 403.335938 548.132812 401.675781 548.089844 400.015625 548.007812 C 398.359375 547.925781 396.703125 547.800781 395.046875 547.636719 C 393.394531 547.472656 391.746094 547.265625 390.105469 547.023438 C 388.460938 546.777344 386.824219 546.492188 385.195312 546.164062 C 383.566406 545.839844 381.945312 545.476562 380.335938 545.070312 C 378.726562 544.664062 377.125 544.222656 375.535156 543.738281 C 373.945312 543.253906 372.367188 542.730469 370.804688 542.171875 C 369.242188 541.609375 367.691406 541.011719 366.15625 540.375 C 364.625 539.738281 363.105469 539.066406 361.605469 538.355469 C 360.101562 537.644531 358.621094 536.894531 357.15625 536.113281 C 355.691406 535.328125 354.246094 534.507812 352.820312 533.652344 C 351.394531 532.800781 349.992188 531.910156 348.613281 530.988281 C 347.230469 530.0625 345.875 529.105469 344.539062 528.117188 C 343.207031 527.128906 341.898438 526.105469 340.613281 525.050781 C 339.328125 523.996094 338.070312 522.914062 336.839844 521.796875 C 335.609375 520.679688 334.40625 519.535156 333.230469 518.359375 C 332.058594 517.1875 330.910156 515.984375 329.796875 514.753906 C 328.679688 513.523438 327.597656 512.265625 326.542969 510.980469 C 325.488281 509.695312 324.464844 508.386719 323.476562 507.054688 C 322.484375 505.71875 321.527344 504.363281 320.605469 502.980469 C 319.683594 501.601562 318.792969 500.195312 317.9375 498.773438 C 317.085938 497.347656 316.265625 495.902344 315.480469 494.4375 C 314.699219 492.972656 313.949219 491.492188 313.238281 489.988281 C 312.527344 488.488281 311.855469 486.96875 311.21875 485.433594 C 310.582031 483.902344 309.984375 482.351562 309.421875 480.789062 C 308.859375 479.222656 308.339844 477.648438 307.855469 476.058594 C 307.371094 474.46875 306.929688 472.867188 306.523438 471.257812 C 306.117188 469.644531 305.753906 468.027344 305.425781 466.398438 C 305.101562 464.769531 304.816406 463.132812 304.570312 461.488281 C 304.324219 459.847656 304.121094 458.199219 303.957031 456.542969 C 303.792969 454.890625 303.667969 453.234375 303.585938 451.578125 C 303.5 449.917969 303.457031 448.257812 303.457031 446.59375 C 303.457031 440.757812 306.769531 426.921875 328.957031 399.722656 C 334.136719 393.375 339.351562 387.539062 343.820312 382.765625 C 347.347656 396.003906 352.246094 413.355469 355.890625 422.300781 C 356.234375 423.152344 356.6875 423.941406 357.246094 424.667969 C 357.804688 425.394531 358.453125 426.035156 359.183594 426.585938 C 359.914062 427.136719 360.707031 427.582031 361.5625 427.921875 C 362.414062 428.257812 363.296875 428.476562 364.207031 428.574219 C 365.121094 428.671875 366.027344 428.648438 366.933594 428.5 C 367.839844 428.351562 368.707031 428.085938 369.542969 427.703125 C 370.375 427.320312 371.140625 426.832031 371.84375 426.242188 C 372.542969 425.648438 373.152344 424.976562 373.671875 424.21875 C 398.980469 387.335938 409.148438 331.804688 412.980469 301.378906 C 423.515625 312.230469 438.289062 328.136719 452.976562 346.109375 C 488.019531 388.996094 506.539062 423.738281 506.539062 446.59375 C 506.535156 448.257812 506.492188 449.917969 506.410156 451.578125 C 506.328125 453.234375 506.203125 454.890625 506.039062 456.542969 C 505.875 458.199219 505.667969 459.847656 505.425781 461.488281 C 505.179688 463.132812 504.894531 464.769531 504.566406 466.398438 C 504.242188 468.027344 503.875 469.644531 503.472656 471.257812 C 503.066406 472.867188 502.621094 474.46875 502.140625 476.058594 C 501.65625 477.648438 501.132812 479.222656 500.574219 480.789062 C 500.011719 482.351562 499.414062 483.902344 498.777344 485.433594 C 498.140625 486.96875 497.46875 488.488281 496.753906 489.988281 C 496.042969 491.492188 495.296875 492.972656 494.515625 494.4375 C 493.730469 495.902344 492.910156 497.347656 492.054688 498.773438 C 491.203125 500.195312 490.3125 501.601562 489.390625 502.980469 C 488.464844 504.363281 487.507812 505.71875 486.519531 507.054688 C 485.53125 508.386719 484.507812 509.695312 483.453125 510.980469 C 482.398438 512.265625 481.316406 513.523438 480.199219 514.753906 C 479.082031 515.984375 477.9375 517.1875 476.761719 518.359375 C 475.589844 519.535156 474.386719 520.679688 473.15625 521.796875 C 471.925781 522.914062 470.667969 523.996094 469.382812 525.050781 C 468.097656 526.105469 466.789062 527.128906 465.457031 528.117188 C 464.121094 529.105469 462.765625 530.0625 461.382812 530.988281 C 460 531.910156 458.597656 532.800781 457.175781 533.652344 C 455.75 534.507812 454.304688 535.328125 452.839844 536.113281 C 451.375 536.894531 449.890625 537.644531 448.390625 538.355469 C 446.890625 539.066406 445.371094 539.738281 443.835938 540.375 C 442.304688 541.011719 440.753906 541.609375 439.191406 542.171875 C 437.625 542.730469 436.050781 543.253906 434.460938 543.738281 C 432.871094 544.222656 431.269531 544.664062 429.660156 545.070312 C 428.046875 545.476562 426.429688 545.839844 424.800781 546.164062 C 423.171875 546.492188 421.535156 546.777344 419.890625 547.023438 C 418.246094 547.265625 416.601562 547.472656 414.945312 547.636719 C 413.292969 547.800781 411.636719 547.925781 409.976562 548.007812 C 408.320312 548.089844 406.660156 548.132812 404.996094 548.136719 Z M 404.996094 548.136719 " fill-opacity="1" fill-rule="nonzero"/><g clip-path="url(#049fdd63c9)"><g clip-path="url(#2f52a56538)"><path fill="#850487" d="M 362.796875 267.808594 L 447.203125 267.808594 L 447.203125 352.210938 L 362.796875 352.210938 Z M 362.796875 267.808594 " fill-opacity="1" fill-rule="nonzero"/></g></g><g clip-path="url(#61b2dd18af)"><g clip-path="url(#15ba19c9c1)"><g clip-path="url(#ad24d69ce0)"><path fill="#850487" d="M 286.085938 547.53125 L 243.734375 474.523438 L 316.742188 432.171875 L 359.097656 505.179688 Z M 286.085938 547.53125 " fill-opacity="1" fill-rule="nonzero"/></g></g></g><g clip-path="url(#2cb1833b66)"><g clip-path="url(#57176449e6)"><g clip-path="url(#1b521224c3)"><path fill="#850487" d="M 450.550781 507.800781 L 493.246094 434.992188 L 566.054688 477.683594 L 523.359375 550.496094 Z M 450.550781 507.800781 " fill-opacity="1" fill-rule="nonzero"/></g></g></g><g clip-path="url(#cb28c4dff1)"><path fill="#e0c71e" d="M 743.65625 551.234375 L 765.332031 551.234375 C 714.550781 701.480469 572.222656 809.957031 405.027344 809.957031 C 237.832031 809.957031 95.503906 701.480469 44.722656 551.234375 L 66.398438 551.234375 C 116.316406 690 249.273438 789.492188 405.027344 789.492188 C 560.78125 789.492188 693.738281 690 743.65625 551.234375 Z M 405.027344 70.03125 C 560.78125 70.03125 693.738281 169.519531 743.65625 308.289062 L 765.332031 308.289062 C 714.550781 158.039062 572.222656 49.5625 405.027344 49.5625 C 237.832031 49.5625 95.503906 158.039062 44.722656 308.289062 L 66.398438 308.289062 C 116.316406 169.519531 249.273438 70.03125 405.027344 70.03125 Z M 405.027344 771.890625 C 259.136719 771.890625 134.265625 680.09375 85.1875 551.234375 L 78.414062 551.234375 C 127.820312 683.65625 255.574219 778.214844 405.027344 778.214844 C 554.476562 778.214844 682.234375 683.65625 731.640625 551.234375 L 724.867188 551.234375 C 675.785156 680.09375 550.917969 771.890625 405.027344 771.890625 Z M 405.027344 81.308594 C 255.574219 81.308594 127.820312 175.867188 78.414062 308.289062 L 85.1875 308.289062 C 134.265625 179.425781 259.136719 87.632812 405.027344 87.632812 C 550.917969 87.632812 675.785156 179.425781 724.867188 308.289062 L 731.640625 308.289062 C 682.234375 175.867188 554.476562 81.308594 405.027344 81.308594 Z M 405.027344 81.308594 " fill-opacity="1" fill-rule="nonzero"/></g><g clip-path="url(#a1a5e14556)"><path fill="#e0c71e" d="M 46.792969 429.753906 C 60.015625 443.933594 96.773438 481.371094 148.679688 518.378906 C 208.683594 561.164062 301.863281 612.171875 405 612.171875 C 508.28125 612.171875 601.59375 561.027344 661.683594 518.117188 C 713.472656 481.136719 750.03125 443.894531 763.203125 429.757812 C 749.980469 415.582031 713.222656 378.144531 661.320312 341.132812 C 601.316406 298.347656 508.136719 247.34375 405 247.34375 C 301.710938 247.34375 208.402344 298.488281 148.316406 341.394531 C 96.523438 378.375 59.96875 415.621094 46.792969 429.753906 Z M 405 630.285156 C 357.160156 630.285156 307.503906 620 257.402344 599.703125 C 217.535156 583.558594 177.289062 561.070312 137.792969 532.863281 C 70.648438 484.921875 29.429688 437.675781 27.707031 435.683594 C 24.757812 432.28125 24.757812 427.230469 27.707031 423.828125 C 29.429688 421.839844 70.648438 374.597656 137.792969 326.652344 C 177.289062 298.449219 217.535156 275.957031 257.402344 259.808594 C 307.503906 239.519531 357.160156 229.230469 405 229.230469 C 452.835938 229.230469 502.496094 239.519531 552.59375 259.808594 C 592.460938 275.957031 632.703125 298.449219 672.207031 326.652344 C 739.351562 374.597656 780.566406 421.839844 782.292969 423.828125 C 785.242188 427.230469 785.242188 432.28125 782.292969 435.683594 C 780.566406 437.675781 739.351562 484.921875 672.207031 532.863281 C 632.703125 561.070312 592.460938 583.558594 552.59375 599.703125 C 502.496094 620 452.835938 630.285156 405 630.285156 " fill-opacity="1" fill-rule="nonzero"/></g><path fill="#e0c71e" d="M 405 297.9375 C 332.3125 297.9375 273.179688 357.070312 273.179688 429.757812 C 273.179688 502.445312 332.3125 561.578125 405 561.578125 C 477.6875 561.578125 536.8125 502.445312 536.8125 429.757812 C 536.8125 357.070312 477.6875 297.9375 405 297.9375 Z M 405 579.6875 C 364.949219 579.6875 327.300781 564.09375 298.980469 535.773438 C 270.664062 507.457031 255.066406 469.808594 255.066406 429.757812 C 255.066406 389.707031 270.664062 352.058594 298.980469 323.742188 C 327.300781 295.421875 364.949219 279.828125 405 279.828125 C 445.050781 279.828125 482.699219 295.421875 511.015625 323.742188 C 539.335938 352.058594 554.929688 389.707031 554.929688 429.757812 C 554.929688 469.808594 539.335938 507.457031 511.015625 535.773438 C 482.699219 564.09375 445.050781 579.6875 405 579.6875 " fill-opacity="1" fill-rule="nonzero"/><g clip-path="url(#3bcbb84964)"><path fill="#e0c71e" d="M 566.953125 429.761719 C 566.953125 432.410156 566.886719 435.058594 566.757812 437.707031 C 566.628906 440.355469 566.433594 442.996094 566.171875 445.632812 C 565.914062 448.273438 565.589844 450.902344 565.199219 453.523438 C 564.8125 456.144531 564.359375 458.757812 563.839844 461.355469 C 563.324219 463.957031 562.742188 466.539062 562.097656 469.113281 C 561.453125 471.683594 560.75 474.238281 559.980469 476.773438 C 559.210938 479.308594 558.378906 481.824219 557.484375 484.320312 C 556.59375 486.816406 555.640625 489.289062 554.625 491.738281 C 553.609375 494.1875 552.535156 496.609375 551.402344 499.003906 C 550.269531 501.402344 549.078125 503.765625 547.828125 506.105469 C 546.578125 508.441406 545.273438 510.746094 543.910156 513.019531 C 542.546875 515.292969 541.132812 517.53125 539.660156 519.738281 C 538.1875 521.941406 536.660156 524.105469 535.082031 526.234375 C 533.503906 528.363281 531.871094 530.453125 530.191406 532.503906 C 528.507812 534.550781 526.777344 536.558594 525 538.523438 C 523.21875 540.484375 521.390625 542.40625 519.519531 544.277344 C 517.644531 546.152344 515.722656 547.980469 513.761719 549.761719 C 511.796875 551.539062 509.789062 553.269531 507.742188 554.953125 C 505.691406 556.632812 503.605469 558.261719 501.476562 559.84375 C 499.347656 561.421875 497.179688 562.945312 494.976562 564.417969 C 492.773438 565.890625 490.535156 567.308594 488.261719 568.671875 C 485.988281 570.035156 483.679688 571.339844 481.34375 572.589844 C 479.007812 573.839844 476.640625 575.03125 474.242188 576.164062 C 471.847656 577.296875 469.425781 578.371094 466.976562 579.386719 C 464.527344 580.398438 462.054688 581.355469 459.558594 582.246094 C 457.0625 583.140625 454.546875 583.96875 452.011719 584.738281 C 449.476562 585.507812 446.921875 586.214844 444.351562 586.859375 C 441.78125 587.503906 439.195312 588.085938 436.59375 588.601562 C 433.996094 589.117188 431.382812 589.570312 428.761719 589.960938 C 426.140625 590.351562 423.511719 590.675781 420.875 590.933594 C 418.234375 591.195312 415.59375 591.386719 412.945312 591.519531 C 410.296875 591.648438 407.648438 591.714844 405 591.714844 C 402.347656 591.714844 399.699219 591.648438 397.054688 591.519531 C 394.40625 591.386719 391.761719 591.195312 389.125 590.933594 C 386.488281 590.675781 383.859375 590.351562 381.234375 589.960938 C 378.613281 589.570312 376.003906 589.117188 373.402344 588.601562 C 370.804688 588.085938 368.21875 587.503906 365.648438 586.859375 C 363.078125 586.214844 360.523438 585.507812 357.988281 584.738281 C 355.449219 583.96875 352.933594 583.140625 350.4375 582.246094 C 347.945312 581.355469 345.472656 580.398438 343.023438 579.386719 C 340.574219 578.371094 338.152344 577.296875 335.753906 576.164062 C 333.359375 575.03125 330.992188 573.839844 328.65625 572.589844 C 326.316406 571.339844 324.011719 570.035156 321.738281 568.671875 C 319.464844 567.308594 317.226562 565.890625 315.023438 564.417969 C 312.820312 562.945312 310.652344 561.421875 308.523438 559.84375 C 306.394531 558.261719 304.304688 556.632812 302.257812 554.953125 C 300.207031 553.269531 298.203125 551.539062 296.238281 549.761719 C 294.273438 547.980469 292.355469 546.152344 290.480469 544.277344 C 288.605469 542.40625 286.78125 540.484375 285 538.523438 C 283.21875 536.558594 281.488281 534.550781 279.808594 532.503906 C 278.125 530.453125 276.496094 528.363281 274.917969 526.234375 C 273.339844 524.105469 271.8125 521.941406 270.339844 519.738281 C 268.867188 517.53125 267.449219 515.292969 266.085938 513.019531 C 264.726562 510.746094 263.417969 508.441406 262.167969 506.105469 C 260.921875 503.765625 259.730469 501.402344 258.59375 499.003906 C 257.460938 496.609375 256.386719 494.1875 255.375 491.738281 C 254.359375 489.289062 253.40625 486.816406 252.511719 484.320312 C 251.621094 481.824219 250.789062 479.308594 250.019531 476.773438 C 249.25 474.238281 248.542969 471.683594 247.898438 469.113281 C 247.257812 466.539062 246.675781 463.957031 246.160156 461.355469 C 245.640625 458.757812 245.1875 456.144531 244.800781 453.523438 C 244.410156 450.902344 244.085938 448.273438 243.828125 445.632812 C 243.566406 442.996094 243.371094 440.355469 243.242188 437.707031 C 243.113281 435.058594 243.046875 432.410156 243.046875 429.761719 C 243.046875 427.109375 243.113281 424.460938 243.242188 421.8125 C 243.371094 419.167969 243.566406 416.523438 243.828125 413.886719 C 244.085938 411.25 244.410156 408.617188 244.800781 405.996094 C 245.1875 403.375 245.640625 400.765625 246.160156 398.164062 C 246.675781 395.566406 247.257812 392.980469 247.898438 390.410156 C 248.542969 387.839844 249.25 385.285156 250.019531 382.746094 C 250.789062 380.210938 251.621094 377.695312 252.511719 375.199219 C 253.40625 372.703125 254.359375 370.234375 255.375 367.785156 C 256.386719 365.335938 257.460938 362.914062 258.59375 360.515625 C 259.730469 358.121094 260.921875 355.753906 262.167969 353.417969 C 263.417969 351.078125 264.726562 348.773438 266.085938 346.5 C 267.449219 344.226562 268.867188 341.988281 270.339844 339.785156 C 271.8125 337.582031 273.339844 335.414062 274.917969 333.285156 C 276.496094 331.15625 278.125 329.066406 279.808594 327.019531 C 281.488281 324.96875 283.21875 322.964844 285 321 C 286.78125 319.035156 288.605469 317.117188 290.480469 315.242188 C 292.355469 313.367188 294.273438 311.542969 296.238281 309.761719 C 298.203125 307.980469 300.207031 306.25 302.257812 304.570312 C 304.304688 302.886719 306.394531 301.257812 308.523438 299.679688 C 310.652344 298.101562 312.820312 296.574219 315.023438 295.101562 C 317.226562 293.628906 319.464844 292.210938 321.738281 290.847656 C 324.011719 289.484375 326.316406 288.179688 328.65625 286.929688 C 330.992188 285.679688 333.359375 284.488281 335.753906 283.355469 C 338.152344 282.222656 340.574219 281.148438 343.023438 280.136719 C 345.472656 279.121094 347.945312 278.167969 350.4375 277.273438 C 352.933594 276.382812 355.449219 275.550781 357.988281 274.78125 C 360.523438 274.011719 363.078125 273.304688 365.648438 272.660156 C 368.21875 272.015625 370.804688 271.4375 373.402344 270.917969 C 376.003906 270.402344 378.613281 269.949219 381.234375 269.558594 C 383.859375 269.171875 386.488281 268.847656 389.125 268.585938 C 391.761719 268.328125 394.40625 268.132812 397.054688 268.003906 C 399.699219 267.871094 402.347656 267.808594 405 267.808594 C 407.648438 267.808594 410.296875 267.871094 412.945312 268.003906 C 415.59375 268.132812 418.234375 268.328125 420.875 268.585938 C 423.511719 268.847656 426.140625 269.171875 428.761719 269.558594 C 431.382812 269.949219 433.996094 270.402344 436.59375 270.917969 C 439.195312 271.4375 441.78125 272.015625 444.351562 272.660156 C 446.921875 273.304688 449.476562 274.011719 452.011719 274.78125 C 454.546875 275.550781 457.0625 276.382812 459.558594 277.273438 C 462.054688 278.167969 464.527344 279.121094 466.976562 280.136719 C 469.425781 281.148438 471.847656 282.222656 474.242188 283.355469 C 476.640625 284.488281 479.007812 285.679688 481.34375 286.929688 C 483.679688 288.179688 485.988281 289.484375 488.261719 290.847656 C 490.535156 292.210938 492.773438 293.628906 494.976562 295.101562 C 497.179688 296.574219 499.347656 298.101562 501.476562 299.679688 C 503.605469 301.257812 505.691406 302.886719 507.742188 304.570312 C 509.789062 306.25 511.796875 307.980469 513.761719 309.761719 C 515.722656 311.542969 517.644531 313.367188 519.519531 315.242188 C 521.390625 317.117188 523.21875 319.035156 525 321 C 526.777344 322.964844 528.507812 324.96875 530.191406 327.019531 C 531.871094 329.066406 533.503906 331.15625 535.082031 333.285156 C 536.660156 335.414062 538.1875 337.582031 539.660156 339.785156 C 541.132812 341.988281 542.546875 344.226562 543.910156 346.5 C 545.273438 348.773438 546.578125 351.078125 547.828125 353.417969 C 549.078125 355.753906 550.269531 358.121094 551.402344 360.515625 C 552.535156 362.914062 553.609375 365.335938 554.625 367.785156 C 555.640625 370.234375 556.59375 372.703125 557.484375 375.199219 C 558.378906 377.695312 559.210938 380.210938 559.980469 382.75 C 560.75 385.285156 561.453125 387.839844 562.097656 390.410156 C 562.742188 392.980469 563.324219 395.566406 563.839844 398.164062 C 564.359375 400.765625 564.8125 403.375 565.199219 405.996094 C 565.589844 408.617188 565.914062 411.25 566.171875 413.886719 C 566.433594 416.523438 566.628906 419.167969 566.757812 421.8125 C 566.886719 424.460938 566.953125 427.109375 566.953125 429.761719 Z M 566.953125 429.761719 " fill-opacity="1" fill-rule="nonzero"/></g><g clip-path="url(#d423079e3d)"><path fill="#00bf63" d="M 524.675781 310.117188 C 492.640625 278.082031 450.113281 260.390625 405.0625 260.390625 C 360.011719 260.390625 317.488281 278.082031 285.386719 310.117188 C 253.351562 342.214844 235.660156 384.742188 235.660156 429.792969 C 235.660156 474.84375 253.351562 517.367188 285.386719 549.402344 C 317.421875 581.441406 359.949219 599.132812 405 599.132812 C 450.050781 599.132812 492.574219 581.441406 524.613281 549.402344 C 556.710938 517.304688 574.339844 474.84375 574.339844 429.792969 C 574.339844 384.742188 556.648438 342.214844 524.613281 310.179688 Z M 401.777344 350.621094 C 400.957031 347.714844 400.261719 344.679688 400.828125 341.585938 C 401.335938 339.058594 402.03125 336.402344 405.1875 336.277344 C 408.347656 336.148438 409.296875 338.613281 409.929688 341.207031 C 410.8125 344.742188 409.738281 348.09375 408.917969 351.441406 C 407.78125 355.992188 407.714844 360.160156 410.558594 364.332031 C 412.960938 367.804688 413.65625 371.914062 412.140625 376.082031 C 410.875 379.621094 407.90625 381.898438 405 381.769531 C 402.21875 381.644531 399.503906 379.242188 398.429688 375.832031 C 398.050781 374.628906 397.734375 373.429688 397.859375 372.609375 C 397.859375 369.324219 398.492188 366.605469 400.132812 364.394531 C 403.292969 360.035156 403.230469 355.484375 401.777344 350.621094 Z M 517.976562 542.707031 C 503 557.683594 485.6875 569.308594 466.796875 577.269531 C 442.152344 587.632812 414.921875 569.6875 414.921875 542.960938 C 414.921875 516.230469 414.921875 487.417969 415.046875 469.285156 C 415.046875 465.808594 416.058594 462.207031 417.066406 458.859375 C 418.207031 455.003906 422.628906 453.359375 426.417969 455.191406 C 430.652344 457.214844 433.6875 460.878906 437.035156 464.039062 C 438.234375 465.175781 437.792969 466.628906 437.035156 467.832031 C 432.105469 476.425781 432.738281 485.015625 436.59375 493.863281 C 438.679688 498.601562 438.171875 503.785156 437.730469 508.839844 C 437.667969 509.785156 437.097656 510.230469 436.402344 510.796875 C 434.066406 512.566406 433.625 514.90625 435.203125 516.738281 C 436.78125 518.570312 438.742188 518.695312 440.574219 517.304688 C 442.722656 515.664062 442.847656 513.515625 441.015625 511.554688 C 439.878906 510.355469 440.003906 509.089844 440.257812 507.765625 C 441.394531 501.824219 440.636719 496.074219 438.488281 490.453125 C 436.65625 485.710938 435.519531 480.910156 436.972656 475.855469 C 439.058594 468.777344 445.4375 466.441406 451.632812 470.484375 C 457.824219 474.527344 457.003906 475.222656 459.023438 478.191406 C 460.414062 480.277344 460.476562 482.679688 458.203125 484.386719 C 454.410156 487.230469 453.210938 491.144531 453.527344 495.507812 C 454.222656 505.617188 451.820312 514.839844 446.449219 523.433594 C 443.355469 528.363281 441.078125 533.734375 441.710938 539.800781 C 441.835938 540.875 441.015625 541.253906 440.574219 541.886719 C 439.183594 543.84375 438.992188 545.929688 441.078125 547.445312 C 442.910156 548.773438 444.996094 548.710938 446.449219 546.875 C 447.964844 544.980469 447.902344 542.769531 445.691406 541.441406 C 443.667969 540.179688 443.984375 538.472656 444.113281 536.703125 C 444.554688 530.765625 448.03125 526.214844 451.253906 520.96875 C 453.148438 524.445312 454.726562 527.730469 457.003906 530.574219 C 457.824219 531.585938 457.003906 532.785156 457.003906 533.921875 C 457.191406 536.007812 458.140625 537.335938 460.289062 537.523438 C 462.5625 537.714844 464.207031 536.640625 464.710938 534.367188 C 465.152344 532.21875 464.269531 530.070312 462.183594 529.941406 C 457.445312 529.753906 456.496094 526.152344 455.234375 522.929688 C 452.707031 516.230469 454.664062 509.660156 456.433594 503.152344 C 456.875 501.507812 458.078125 501.699219 459.152344 502.394531 C 460.667969 503.339844 461.488281 504.792969 461.613281 506.5625 C 461.929688 511.933594 464.332031 516.421875 467.808594 520.402344 C 471.789062 524.949219 474.566406 530.257812 477.160156 535.691406 C 477.726562 536.894531 477.917969 537.839844 477.03125 539.105469 C 475.324219 541.757812 476.84375 544.792969 479.75 545.109375 C 482.65625 545.421875 483.351562 544.285156 484.046875 542.515625 C 484.742188 540.746094 483.855469 538.03125 481.140625 537.273438 C 479.875 536.957031 479.496094 536.261719 479.117188 535.25 C 476.714844 528.679688 473.429688 522.613281 468.945312 517.179688 C 464.078125 511.238281 464.078125 506.5625 469.449219 498.855469 C 471.03125 496.644531 473.429688 495.949219 476.210938 496.390625 C 480.128906 497.023438 483.289062 498.980469 486.003906 501.699219 C 490.113281 505.804688 493.648438 510.417969 497.378906 514.839844 C 498.136719 515.726562 498.453125 516.609375 498.199219 518 C 497.695312 520.65625 499.148438 522.613281 501.484375 522.675781 C 503.824219 522.804688 505.277344 521.601562 505.65625 519.265625 C 506.035156 516.925781 504.453125 515.03125 501.800781 515.03125 C 500.285156 515.03125 499.589844 514.335938 498.769531 513.324219 C 495.484375 509.089844 492.195312 504.859375 488.722656 500.75 C 485.5625 496.894531 481.582031 494.304688 476.464844 493.609375 C 474.378906 493.292969 472.484375 492.472656 471.722656 490.386719 C 468.816406 482.046875 462.6875 476.042969 457.066406 469.664062 C 455.042969 467.324219 452.199219 465.113281 453.90625 461.449219 C 455.613281 457.847656 459.148438 459.109375 462.058594 458.859375 C 463.195312 458.730469 464.394531 458.859375 465.53125 458.859375 C 470.839844 458.984375 472.039062 460.121094 474.125 464.988281 C 481.898438 483.3125 494.410156 495.757812 515.324219 497.402344 C 516.585938 497.527344 517.09375 498.160156 517.851562 498.917969 C 519.621094 500.6875 521.640625 500.625 523.472656 498.980469 C 525.242188 497.402344 525.242188 495.378906 523.851562 493.609375 C 522.273438 491.589844 519.808594 491.335938 518.355469 493.167969 C 515.953125 496.203125 513.300781 495.191406 510.457031 494.558594 C 494.789062 491.210938 484.488281 481.542969 478.234375 467.074219 C 477.980469 466.441406 477.726562 465.808594 477.539062 465.113281 C 476.96875 463.089844 476.589844 461.007812 478.296875 459.363281 C 479.9375 457.722656 481.960938 458.226562 483.984375 458.667969 C 487.332031 459.488281 490.175781 461.257812 493.082031 462.964844 C 496.683594 465.175781 500.160156 467.515625 503.761719 469.726562 C 505.527344 470.800781 507.171875 471.621094 507.109375 474.339844 C 507.109375 476.425781 509.003906 477.5625 511.214844 477.246094 C 513.363281 476.929688 514.628906 475.664062 514.628906 473.453125 C 514.628906 471.054688 513.175781 469.285156 510.964844 469.601562 C 508.054688 470.042969 506.160156 468.589844 504.074219 467.261719 C 500.347656 464.859375 496.558594 462.585938 492.953125 460.058594 C 487.394531 456.203125 481.203125 454.625 474.503906 454.75 C 470.398438 454.8125 466.289062 454.625 462.183594 454.6875 C 458.707031 454.6875 456.117188 453.234375 454.09375 450.515625 C 452.453125 448.242188 450.808594 445.90625 449.230469 443.503906 C 444.492188 436.363281 436.152344 436.488281 429.707031 438.574219 C 428.1875 439.082031 427.429688 440.40625 426.671875 441.671875 C 424.839844 444.640625 420.605469 446.285156 417.320312 445.019531 C 414.605469 444.007812 414.035156 441.480469 414.097656 438.890625 C 414.160156 436.300781 416.6875 432.699219 419.976562 432.195312 C 423.261719 431.6875 426.609375 430.046875 429.640625 428.148438 C 436.59375 423.917969 446.640625 424.546875 453.085938 429.539062 C 458.769531 433.898438 464.457031 438.257812 470.082031 442.683594 C 473.871094 445.652344 478.296875 446.789062 483.035156 446.980469 C 489.734375 447.230469 496.492188 446.980469 503.128906 448.621094 C 511.660156 450.644531 518.988281 455.191406 526.445312 459.554688 C 527.453125 460.121094 527.582031 460.878906 527.769531 461.828125 C 528.277344 464.230469 530.109375 465.113281 532.257812 464.542969 C 534.46875 463.976562 535.730469 462.398438 535.164062 460.058594 C 534.59375 457.722656 532.824219 456.140625 530.550781 457.089844 C 528.023438 458.164062 526.445312 457.027344 524.613281 455.824219 C 517.410156 451.339844 510.269531 446.601562 501.738281 444.894531 C 497.0625 443.945312 492.324219 444.199219 487.585938 444.136719 C 484.363281 444.074219 481.074219 444.261719 477.855469 443.25 C 476.335938 442.746094 474.945312 442.050781 473.871094 440.851562 C 472.167969 438.953125 471.976562 437.375 474.695312 436.109375 C 477.410156 434.847656 476.714844 434.972656 477.664062 434.277344 C 482.464844 430.613281 487.269531 429.476562 492.828125 433.203125 C 496.304688 435.542969 500.285156 434.722656 504.074219 433.203125 C 510.773438 430.550781 517.660156 428.78125 524.863281 428.65625 C 526.507812 428.65625 527.769531 428.78125 528.84375 430.425781 C 530.234375 432.507812 532.507812 432.507812 534.34375 430.929688 C 536.113281 429.476562 536.300781 427.453125 534.847656 425.558594 C 533.332031 423.601562 531.121094 423.09375 529.351562 424.863281 C 527.707031 426.570312 526.066406 426.445312 524.042969 426.316406 C 516.902344 425.875 510.078125 427.582031 503.378906 430.109375 C 500.539062 431.183594 497.820312 431.878906 494.851562 430.425781 C 491.3125 428.65625 489.226562 426.0625 489.542969 423.664062 C 489.859375 421.324219 493.460938 417.472656 496.492188 417.535156 C 504.011719 417.660156 509.257812 414.375 513.933594 408.6875 C 517.027344 404.832031 522.335938 404.265625 526.949219 402.875 C 528.085938 402.558594 528.59375 403.507812 529.289062 404.136719 C 531.246094 405.90625 533.203125 405.527344 534.785156 403.695312 C 536.492188 401.738281 535.984375 399.714844 534.152344 398.136719 C 532.195312 396.429688 529.980469 396.808594 528.71875 398.894531 C 527.707031 400.472656 526.570312 400.726562 524.925781 401.042969 C 518.863281 402.304688 513.238281 404.519531 509.128906 409.507812 C 506.414062 412.796875 502.9375 414.375 498.578125 414.183594 C 493.964844 413.933594 490.554688 416.207031 487.648438 419.554688 C 483.414062 424.484375 481.835938 424.546875 477.03125 420.25 C 468.4375 412.542969 461.867188 411.722656 451.882812 417.535156 C 448.09375 419.746094 444.363281 419.175781 440.574219 418.417969 C 437.539062 417.785156 436.71875 414.753906 438.550781 412.289062 C 441.902344 407.742188 445.753906 404.136719 452.136719 404.960938 C 454.855469 405.339844 457.632812 404.960938 460.351562 404.832031 C 464.457031 404.582031 468.121094 405.277344 471.722656 407.613281 C 476.335938 410.648438 481.582031 410.078125 486.699219 408.878906 C 494.976562 406.917969 502.054688 402.75 508.308594 397.0625 C 510.332031 395.230469 512.226562 393.269531 514.25 391.375 C 515.261719 390.363281 516.082031 389.480469 517.976562 390.046875 C 520.25 390.742188 522.085938 389.480469 522.589844 386.953125 C 523.03125 384.675781 521.453125 382.65625 519.304688 382.402344 C 516.839844 382.148438 515.132812 383.539062 514.878906 386.128906 C 514.816406 386.824219 514.878906 387.519531 514.3125 388.152344 C 506.414062 395.988281 498.324219 403.507812 486.890625 405.78125 C 483.984375 406.351562 481.074219 406.917969 478.105469 406.667969 C 475.957031 406.476562 474.0625 405.71875 473.367188 403.570312 C 472.671875 401.421875 474.632812 400.664062 475.957031 399.714844 C 479.117188 397.566406 481.960938 395.101562 484.109375 391.945312 C 485.183594 390.363281 486.511719 389.351562 488.53125 389.417969 C 495.101562 389.605469 500.285156 386.507812 504.644531 382.023438 C 507.296875 379.304688 509.699219 376.398438 512.226562 373.554688 C 514.058594 371.472656 515.386719 369.070312 518.734375 368.691406 C 521.074219 368.4375 521.769531 366.039062 521.011719 363.824219 C 520.25 361.613281 518.101562 360.855469 516.144531 361.363281 C 514.1875 361.867188 512.605469 363.824219 513.363281 366.039062 C 513.996094 367.804688 513.425781 368.753906 512.480469 369.890625 C 507.613281 375.578125 502.875 381.390625 495.925781 384.742188 C 490.492188 387.332031 487.898438 385.816406 487.773438 379.875 C 487.648438 371.28125 486.824219 362.625 490.808594 354.472656 C 492.828125 350.367188 495.167969 346.574219 498.199219 343.164062 C 499.273438 341.964844 500.347656 341.078125 502.179688 341.015625 C 504.769531 340.824219 505.78125 338.929688 505.402344 336.527344 C 504.960938 334.066406 503.191406 332.992188 500.789062 333.371094 C 498.324219 333.8125 496.9375 335.582031 497.566406 337.917969 C 498.136719 339.878906 497.566406 340.890625 496.367188 342.214844 C 488.46875 351 483.917969 361.109375 484.613281 373.175781 C 484.992188 379.179688 484.425781 384.929688 480.761719 390.046875 C 476.652344 395.796875 471.410156 399.335938 464.140625 399.273438 C 460.160156 399.273438 456.117188 399.273438 452.136719 399.273438 C 447.902344 399.273438 446.261719 397.882812 446.007812 394.21875 C 445.753906 390.742188 448.535156 387.078125 451.757812 386.574219 C 452.261719 386.507812 452.832031 386.574219 453.335938 386.574219 C 461.234375 386.574219 463.320312 384.992188 466.289062 377.222656 C 469.261719 369.449219 468.121094 372.480469 469.070312 370.207031 C 470.019531 367.933594 470.714844 367.113281 473.242188 366.796875 C 475.390625 366.542969 476.019531 364.269531 475.453125 362.246094 C 474.820312 359.972656 473.050781 358.707031 470.648438 359.148438 C 468.1875 359.59375 466.734375 361.613281 467.554688 363.761719 C 468.628906 366.417969 467.429688 368.121094 466.355469 370.082031 C 464.648438 373.242188 463.066406 376.464844 461.425781 379.621094 C 459.910156 382.464844 457.695312 383.601562 454.347656 383.035156 C 449.355469 382.214844 446.386719 383.855469 443.984375 388.277344 C 443.039062 390.046875 442.152344 391.878906 441.585938 393.777344 C 439.375 401.992188 434.632812 408.308594 427.683594 413.046875 C 425.21875 414.753906 423.261719 416.839844 422.1875 419.746094 C 421.429688 421.957031 419.46875 422.96875 417.195312 422.777344 C 414.917969 422.589844 414.160156 420.628906 413.71875 418.796875 C 412.328125 413.617188 413.53125 410.710938 418.078125 407.804688 C 420.226562 406.476562 422.4375 405.277344 424.523438 403.886719 C 429.707031 400.347656 432.550781 395.355469 432.167969 389.164062 C 431.664062 382.148438 434.949219 377.539062 440.195312 373.808594 C 446.828125 369.132812 453.335938 364.332031 457.316406 356.9375 C 457.949219 355.675781 459.085938 354.789062 460.351562 354.285156 C 468.058594 351.503906 473.746094 346.195312 478.863281 340.003906 C 479.9375 338.742188 480.886719 337.601562 482.910156 337.476562 C 485.121094 337.414062 486.574219 334.886719 485.941406 332.863281 C 485.308594 330.589844 483.730469 329.515625 481.457031 329.894531 C 478.992188 330.273438 477.539062 332.234375 478.359375 334.445312 C 479.117188 336.527344 478.296875 337.539062 477.160156 338.804688 C 473.242188 343.164062 468.945312 347.019531 463.574219 349.417969 C 458.960938 351.441406 456.621094 350.304688 456.117188 345.375 C 455.167969 336.527344 459.023438 329.261719 464.457031 322.628906 C 465.089844 321.871094 465.972656 322.058594 466.796875 321.996094 C 469.890625 321.808594 471.535156 320.101562 471.15625 317.511719 C 470.902344 315.363281 468.753906 313.71875 466.667969 314.035156 C 464.207031 314.414062 462.753906 316.6875 463.574219 319.46875 C 463.890625 320.542969 463.574219 320.921875 462.941406 321.492188 C 458.328125 326.039062 455.167969 331.410156 453.527344 337.601562 C 452.707031 340.699219 451 342.59375 448.03125 343.984375 C 441.902344 346.890625 439.375 353.84375 442.34375 359.972656 C 443.859375 363.066406 443.039062 364.898438 440.699219 366.730469 C 438.804688 368.25 436.972656 369.890625 435.011719 371.21875 C 432.863281 372.671875 430.78125 371.851562 430.78125 369.324219 C 430.589844 359.464844 429.453125 349.546875 432.613281 339.878906 C 434.128906 335.328125 437.414062 332.042969 440.636719 328.695312 C 441.519531 327.808594 442.34375 328.316406 443.226562 328.441406 C 445.882812 328.820312 447.144531 327.242188 447.523438 324.902344 C 447.839844 322.628906 445.882812 320.417969 443.605469 320.480469 C 441.207031 320.542969 439.4375 321.742188 439.6875 324.335938 C 439.878906 326.230469 439.246094 327.304688 437.917969 328.503906 C 430.84375 334.886719 426.925781 342.722656 427.242188 352.453125 C 427.304688 355.296875 426.988281 358.140625 427.242188 360.980469 C 428 370.269531 425.789062 379.179688 424.273438 388.214844 C 423.386719 393.460938 419.785156 396.933594 415.046875 399.148438 C 412.265625 400.472656 409.675781 398.957031 409.234375 395.988281 C 408.664062 391.566406 408.664062 387.394531 412.011719 383.601562 C 417.382812 377.472656 417.257812 370.523438 413.402344 363.636719 C 411.066406 359.464844 410.6875 355.296875 411.886719 350.871094 C 412.390625 349.039062 412.898438 347.144531 414.605469 346.007812 C 419.722656 342.59375 421.742188 337.351562 422.753906 331.601562 C 423.324219 328.378906 424.652344 325.660156 426.484375 323.007812 C 429.011719 319.40625 431.664062 315.867188 434.695312 312.582031 C 436.023438 311.128906 437.226562 309.863281 439.625 309.800781 C 441.964844 309.800781 443.355469 307.84375 442.976562 305.378906 C 442.59375 303.105469 441.015625 301.902344 438.742188 301.964844 C 436.339844 302.03125 434.507812 304.242188 435.265625 306.578125 C 436.023438 308.726562 434.949219 309.613281 433.6875 310.6875 C 429.894531 313.84375 426.105469 317.066406 422.566406 320.480469 C 422.25 318.898438 420.417969 316.878906 422.4375 314.222656 C 424.460938 311.570312 423.511719 309.992188 421.742188 308.664062 C 419.976562 307.335938 418.078125 307.589844 416.5625 309.167969 C 415.046875 310.6875 414.667969 312.960938 416.375 314.222656 C 420.734375 317.574219 420.039062 322.5 420.480469 326.863281 C 420.921875 331.410156 419.660156 335.898438 417.382812 339.878906 C 415.742188 342.660156 414.035156 342.46875 412.390625 339.625 C 411.699219 338.425781 411.128906 337.035156 410.117188 336.277344 C 406.199219 333.179688 405.566406 329.074219 405.757812 324.460938 C 406.011719 318.457031 405.757812 312.457031 405.757812 306.453125 C 405.757812 305 405.949219 303.863281 407.210938 302.789062 C 408.476562 301.714844 408.285156 301.398438 408.410156 300.574219 C 409.042969 295.898438 403.925781 294.828125 401.839844 297.226562 C 400.132812 299.121094 400.070312 301.335938 402.03125 302.789062 C 403.609375 303.925781 403.734375 305.1875 403.734375 306.769531 C 403.734375 313.53125 403.609375 320.226562 403.734375 326.988281 C 403.734375 330.085938 402.851562 332.738281 400.890625 335.140625 C 399.628906 336.65625 398.617188 338.425781 397.605469 340.128906 C 396.027344 342.785156 394.511719 342.910156 392.804688 340.257812 C 390.78125 337.222656 389.773438 333.75 389.328125 330.210938 C 388.824219 325.976562 389.644531 321.808594 390.65625 317.699219 C 390.910156 316.625 391.667969 315.992188 392.613281 315.363281 C 394.890625 313.84375 395.140625 311.824219 393.753906 309.675781 C 392.613281 307.90625 389.898438 307.527344 388.128906 308.789062 C 386.234375 310.117188 385.789062 312.707031 387.496094 314.605469 C 389.898438 317.257812 386.929688 319.152344 386.738281 321.492188 C 382.757812 317.320312 379.09375 313.148438 374.796875 309.546875 C 373.910156 308.789062 374.039062 308.09375 374.226562 307.085938 C 374.796875 304.621094 373.152344 302.34375 370.753906 302.03125 C 368.476562 301.714844 366.394531 303.609375 366.328125 305.945312 C 366.328125 308.347656 368.351562 310.433594 370.816406 309.992188 C 372.332031 309.675781 372.964844 310.371094 373.722656 311.128906 C 377.640625 315.046875 380.988281 319.34375 384.085938 323.957031 C 387.179688 328.566406 386.171875 328 386.613281 330.273438 C 387.75 336.277344 389.707031 341.710938 394.890625 345.753906 C 398.808594 348.789062 399.882812 355.992188 397.671875 360.917969 C 396.976562 362.4375 396.089844 363.890625 395.457031 365.46875 C 392.742188 371.851562 392.679688 378.105469 397.542969 383.476562 C 401.019531 387.332031 400.957031 391.628906 400.449219 396.175781 C 400.132812 399.210938 397.355469 400.726562 394.699219 399.273438 C 389.328125 396.429688 386.234375 392.257812 385.03125 385.878906 C 382.757812 373.746094 382.882812 361.613281 382.632812 349.417969 C 382.441406 340.699219 377.511719 334.316406 371.320312 328.695312 C 370.058594 327.492188 368.792969 326.609375 368.984375 324.335938 C 369.171875 321.871094 367.214844 320.667969 364.75 320.796875 C 362.476562 320.921875 360.894531 322.945312 361.273438 325.15625 C 361.71875 327.558594 363.296875 329.074219 365.761719 328.441406 C 367.46875 328 368.160156 328.757812 369.234375 329.640625 C 376.125 335.328125 379.09375 342.847656 379.472656 351.566406 C 379.726562 357.066406 379.597656 362.5 379.660156 367.996094 C 379.660156 369.703125 379.15625 371.15625 377.640625 372.039062 C 376.058594 372.925781 374.859375 371.789062 373.660156 370.964844 C 372.648438 370.207031 371.636719 369.449219 370.625 368.691406 C 365.507812 364.835938 365.507812 363.890625 367.65625 359.085938 C 369.996094 353.84375 366.835938 346.703125 361.402344 344.238281 C 358.621094 342.972656 357.042969 341.078125 356.21875 338.296875 C 354.324219 331.917969 351.226562 326.292969 346.300781 321.742188 C 345.476562 320.984375 345.476562 320.289062 345.667969 319.28125 C 346.171875 316.6875 344.46875 314.476562 342.128906 314.289062 C 339.980469 314.160156 338.023438 315.992188 337.894531 318.140625 C 337.769531 320.417969 339.476562 322.3125 342.066406 322.25 C 343.773438 322.25 344.78125 322.882812 345.730469 324.082031 C 349.710938 328.882812 352.300781 334.316406 353.25 340.511719 C 353.375 341.140625 353.503906 341.773438 353.503906 342.40625 C 353.375 345.25 353.503906 348.410156 350.847656 350.113281 C 348.320312 351.820312 345.792969 349.863281 343.519531 348.597656 C 338.589844 345.878906 334.421875 342.214844 330.820312 337.855469 C 330.0625 336.910156 329.996094 336.214844 330.3125 335.074219 C 331.070312 332.546875 329.808594 330.464844 327.597656 329.957031 C 325.511719 329.515625 323.238281 330.96875 322.792969 333.054688 C 322.351562 335.265625 324.121094 337.667969 326.648438 337.730469 C 327.976562 337.730469 328.542969 338.363281 329.175781 339.121094 C 334.738281 345.878906 341.054688 351.628906 349.394531 354.789062 C 350.597656 355.230469 351.542969 356.179688 352.113281 357.316406 C 355.777344 363.953125 361.464844 368.628906 367.53125 372.863281 C 369.171875 374 370.816406 375.136719 372.269531 376.464844 C 375.679688 379.496094 377.511719 383.222656 377.324219 387.898438 C 377.007812 395.925781 380.546875 401.863281 387.496094 405.71875 C 388.761719 406.414062 390.023438 407.171875 391.289062 407.992188 C 395.964844 411.027344 397.101562 414.4375 395.332031 419.621094 C 394.761719 421.324219 394.003906 422.714844 391.921875 422.777344 C 389.707031 422.84375 387.75 422.148438 387.117188 419.933594 C 386.234375 416.839844 384.210938 414.816406 381.746094 413.175781 C 374.734375 408.433594 369.929688 402.304688 367.65625 394.09375 C 367.023438 391.816406 365.761719 389.605469 364.558594 387.582031 C 362.476562 384.109375 359.378906 382.277344 355.273438 383.035156 C 351.292969 383.792969 348.828125 382.085938 347.058594 378.230469 C 345.414062 374.628906 343.582031 371.15625 341.246094 367.933594 C 338.90625 364.710938 340.613281 365.847656 341.054688 364.710938 C 342.003906 362.308594 340.992188 360.160156 338.71875 359.402344 C 336.441406 358.644531 334.167969 359.84375 333.472656 362.183594 C 332.839844 364.457031 334.230469 366.730469 336.882812 367.175781 C 338.148438 367.363281 338.652344 367.933594 339.160156 368.945312 C 340.613281 372.292969 342.320312 375.578125 343.644531 378.992188 C 345.855469 384.550781 349.457031 387.394531 355.714844 386.824219 C 360.453125 386.382812 363.867188 390.679688 362.980469 395.230469 C 362.476562 397.757812 361.148438 399.460938 358.304688 399.460938 C 353.125 399.460938 347.941406 399.652344 342.824219 399.273438 C 334.421875 398.703125 326.078125 390.492188 324.941406 381.769531 C 324.625 379.179688 324.5 376.527344 324.691406 373.871094 C 325.511719 361.742188 321.089844 351.628906 313.0625 342.910156 C 311.738281 341.457031 310.851562 340.320312 311.609375 338.046875 C 312.367188 335.769531 310.914062 333.9375 308.386719 333.558594 C 305.921875 333.179688 304.152344 334.382812 303.773438 336.78125 C 303.394531 339.183594 304.535156 341.078125 307.0625 341.269531 C 308.894531 341.394531 309.902344 342.277344 310.976562 343.480469 C 318.371094 351.882812 322.414062 361.488281 321.59375 372.925781 C 321.402344 375.769531 321.46875 378.609375 321.277344 381.453125 C 321.023438 385.246094 318.5625 386.890625 314.960938 385.625 C 307.441406 382.972656 302.636719 377.03125 297.898438 371.09375 C 296.636719 369.511719 295.496094 367.996094 296.066406 365.46875 C 296.570312 363.128906 294.867188 361.488281 292.339844 361.425781 C 290 361.425781 288.484375 362.6875 288.421875 365.027344 C 288.292969 367.492188 289.496094 369.257812 292.085938 369.070312 C 293.855469 368.945312 294.488281 369.828125 295.246094 370.964844 C 298.910156 376.148438 302.765625 381.140625 307.753906 385.054688 C 311.042969 387.648438 314.707031 389.480469 319.003906 389.417969 C 322.035156 389.351562 324.246094 390.554688 325.828125 393.082031 C 327.722656 396.050781 330.503906 398.199219 333.410156 400.09375 C 334.671875 400.917969 335.808594 401.992188 335.429688 403.695312 C 335.117188 405.339844 333.789062 406.097656 332.335938 406.539062 C 330.1875 407.171875 327.976562 406.980469 325.765625 406.539062 C 316.726562 404.960938 308.765625 401.105469 302.320312 394.535156 C 299.351562 391.5 295.308594 389.351562 294.171875 384.613281 C 293.726562 382.65625 291.515625 382.023438 289.433594 382.78125 C 287.285156 383.601562 286.714844 385.433594 287.21875 387.394531 C 287.726562 389.351562 289.8125 390.617188 291.769531 390.046875 C 293.726562 389.480469 294.800781 390.617188 296.003906 391.816406 C 302.195312 398.007812 308.765625 403.695312 317.105469 407.046875 C 325.003906 410.203125 332.714844 411.40625 340.234375 406.160156 C 340.738281 405.78125 341.371094 405.527344 341.941406 405.464844 C 349.078125 404.832031 356.347656 404.390625 363.359375 405.71875 C 367.402344 406.476562 369.867188 410.519531 372.078125 413.933594 C 373.152344 415.574219 371.257812 418.417969 368.792969 418.734375 C 364.308594 419.238281 359.882812 419.808594 355.714844 416.964844 C 348.765625 412.164062 341.8125 412.984375 335.179688 417.785156 C 333.28125 419.113281 331.578125 420.695312 329.746094 422.148438 C 327.152344 424.105469 325.132812 424.042969 322.730469 421.769531 C 321.78125 420.882812 321.023438 419.933594 320.140625 418.988281 C 317.550781 416.332031 314.578125 414.4375 310.789062 414.375 C 306.996094 414.3125 302.386719 412.351562 299.730469 408.941406 C 295.8125 404.011719 290.191406 402.117188 284.25 401.105469 C 282.671875 400.851562 281.34375 400.601562 280.332031 399.019531 C 278.941406 396.933594 276.792969 396.746094 274.835938 398.324219 C 272.875 399.90625 272.6875 401.992188 274.203125 403.886719 C 275.785156 405.84375 277.933594 406.160156 279.699219 404.328125 C 281.28125 402.75 282.671875 403 284.503906 403.507812 C 290.695312 405.023438 296.191406 407.488281 299.730469 413.238281 C 301.3125 415.828125 303.964844 416.902344 306.996094 416.964844 C 309.398438 416.964844 311.863281 417.28125 314.074219 418.292969 C 317.488281 419.808594 319.699219 422.777344 319.253906 425.117188 C 318.75 428.023438 314.453125 431.433594 311.042969 431.5 C 308.957031 431.5625 307.0625 430.867188 305.226562 430.171875 C 298.152344 427.453125 290.886719 426 283.300781 426.570312 C 282.164062 426.632812 281.40625 426.316406 280.585938 425.433594 C 278.816406 423.535156 276.792969 423.789062 275.023438 425.433594 C 273.320312 427.011719 273.445312 429.980469 275.277344 431.308594 C 277.300781 432.761719 279.511719 432.636719 280.839844 430.613281 C 281.914062 428.972656 283.175781 428.84375 284.820312 428.90625 C 291.328125 429.035156 297.582031 430.234375 303.523438 432.824219 C 308.640625 435.101562 313.441406 435.289062 318.246094 432.382812 C 321.59375 430.359375 324.816406 430.738281 327.976562 432.886719 C 331.132812 435.035156 332.207031 435.605469 334.421875 436.742188 C 336.632812 437.878906 336.570312 439.398438 335.050781 441.039062 C 333.15625 443.125 330.691406 443.945312 327.976562 444.136719 C 324.375 444.324219 320.835938 444.453125 317.234375 444.386719 C 308.703125 444.136719 300.804688 446.347656 293.414062 450.582031 C 290.316406 452.351562 287.285156 454.246094 284.25 456.140625 C 282.417969 457.277344 280.839844 458.542969 278.246094 457.46875 C 276.164062 456.644531 274.265625 457.972656 273.761719 460.3125 C 273.320312 462.460938 274.265625 464.164062 276.289062 464.796875 C 278.625 465.492188 280.460938 464.542969 281.21875 462.082031 C 281.535156 461.070312 281.722656 460.058594 282.734375 459.488281 C 290.886719 454.941406 298.847656 449.949219 308.324219 448.367188 C 313.570312 447.484375 318.8125 447.230469 324.058594 447.292969 C 330.503906 447.292969 336.125 445.398438 341.117188 441.164062 C 346.171875 436.867188 351.542969 432.953125 356.789062 428.972656 C 362.347656 424.800781 372.523438 424.484375 378.273438 428.277344 C 381.496094 430.425781 384.652344 432.320312 388.886719 432.445312 C 393.5 432.574219 396.40625 438.511719 394.511719 442.746094 C 393.753906 444.386719 392.613281 445.589844 390.71875 445.589844 C 388.191406 445.589844 385.03125 445.90625 383.894531 443.3125 C 381.558594 438.070312 377.199219 438.007812 372.585938 437.753906 C 367.46875 437.5 363.296875 439.144531 360.261719 443.378906 C 358.808594 445.398438 357.421875 447.546875 355.96875 449.632812 C 353.566406 453.171875 350.40625 455.128906 345.921875 455.066406 C 340.675781 454.941406 335.367188 455.320312 330.125 455.320312 C 323.742188 455.320312 318.117188 457.339844 313.0625 460.941406 C 309.96875 463.15625 306.996094 465.429688 304.027344 467.832031 C 302.320312 469.21875 300.804688 470.484375 298.277344 470.105469 C 295.941406 469.726562 294.613281 471.496094 294.613281 473.832031 C 294.613281 476.109375 295.8125 477.625 298.277344 477.6875 C 300.617188 477.75 302.386719 476.613281 302.257812 474.210938 C 302.132812 472.128906 303.015625 471.242188 304.46875 470.230469 C 308.007812 467.765625 311.355469 465.050781 314.960938 462.648438 C 318.5625 460.183594 322.605469 458.667969 327.027344 458.667969 C 330.503906 458.667969 332.207031 460.753906 331.765625 464.164062 C 331.703125 464.671875 331.515625 465.175781 331.386719 465.683594 C 327.34375 481.097656 310.347656 495 294.488281 495.886719 C 293.097656 495.949219 292.464844 495.316406 291.707031 494.304688 C 289.9375 492.03125 287.472656 491.714844 285.703125 493.421875 C 283.933594 495.128906 283.871094 497.210938 285.261719 499.109375 C 286.589844 500.941406 289.304688 500.941406 291.390625 499.042969 C 293.476562 497.148438 293.097656 497.90625 294.109375 497.84375 C 314.328125 496.453125 326.585938 484.511719 334.355469 467.007812 C 337.453125 459.996094 338.085938 459.046875 345.921875 459.109375 C 347.308594 459.109375 348.636719 459.175781 350.027344 459.238281 C 352.175781 459.238281 354.007812 459.804688 355.019531 461.890625 C 355.96875 464.039062 355.460938 466 354.007812 467.765625 C 351.921875 470.292969 349.902344 472.820312 347.625 475.222656 C 343.644531 479.394531 340.359375 484.007812 338.527344 489.503906 C 337.644531 492.03125 336 493.546875 333.347656 493.925781 C 327.28125 494.875 322.730469 498.222656 319.003906 502.960938 C 316.664062 505.933594 314.328125 508.964844 311.988281 511.871094 C 310.535156 513.703125 309.335938 515.535156 306.367188 515.726562 C 304.089844 515.851562 303.332031 518.125 303.902344 520.402344 C 304.46875 522.675781 306.113281 523.433594 308.199219 523.117188 C 310.472656 522.738281 312.179688 521.160156 311.484375 518.949219 C 310.664062 516.484375 311.863281 515.21875 313.125 513.765625 C 316.726562 509.660156 320.015625 505.238281 323.996094 501.507812 C 327.40625 498.347656 331.199219 496.515625 336 497.085938 C 337.328125 497.273438 338.402344 497.78125 339.347656 498.664062 C 343.773438 502.898438 345.035156 510.859375 341.433594 515.664062 C 336.632812 522.109375 332.398438 528.804688 329.746094 536.449219 C 329.367188 537.589844 328.417969 537.902344 327.46875 538.410156 C 325.449219 539.484375 324.878906 541.949219 326.144531 543.78125 C 327.53125 545.867188 329.492188 546.371094 331.640625 545.042969 C 333.726562 543.78125 334.609375 541.570312 332.902344 539.671875 C 331.324219 537.902344 331.828125 536.578125 332.589844 534.871094 C 335.179688 529.058594 338.71875 523.8125 342.699219 518.949219 C 345.476562 515.535156 347.5625 511.808594 347.753906 507.320312 C 347.753906 506.5 348.070312 505.679688 348.382812 504.921875 C 349.015625 503.53125 349.902344 502.140625 351.605469 502.265625 C 353.1875 502.394531 353.1875 504.035156 353.441406 505.238281 C 354.765625 511.871094 356.347656 518.441406 353.441406 525.078125 C 352.300781 527.667969 351.226562 530.132812 347.5625 530.257812 C 345.226562 530.320312 344.277344 532.46875 344.71875 534.679688 C 345.160156 536.957031 346.679688 538.15625 349.078125 537.839844 C 351.542969 537.460938 353.125 535.753906 352.429688 533.417969 C 351.859375 531.394531 352.492188 530.257812 353.628906 528.996094 C 355.652344 526.785156 356.535156 523.941406 358.117188 521.035156 C 361.527344 525.835938 364.8125 530.320312 365.570312 536.070312 C 365.886719 538.410156 366.078125 540.429688 363.800781 542.265625 C 362.03125 543.71875 362.410156 546.054688 364.117188 547.570312 C 365.824219 549.089844 367.910156 548.898438 369.488281 547.253906 C 371.132812 545.613281 371.132812 543.652344 369.425781 541.949219 C 368.605469 541.191406 367.972656 540.558594 368.097656 539.355469 C 368.542969 533.921875 366.644531 529.183594 363.738281 524.824219 C 357.800781 516.042969 355.144531 506.4375 355.839844 495.886719 C 356.09375 491.398438 354.894531 487.355469 351.101562 484.449219 C 349.015625 482.867188 349.207031 480.785156 350.40625 478.824219 C 352.238281 475.980469 354.386719 473.390625 357.105469 471.304688 C 360.261719 468.90625 363.738281 468.019531 367.46875 469.726562 C 371.070312 471.433594 372.902344 474.527344 373.21875 478.507812 C 373.53125 482.488281 372.902344 486.28125 371.449219 489.945312 C 369.046875 495.949219 367.972656 502.078125 369.300781 508.460938 C 369.613281 509.914062 369.234375 510.921875 368.160156 512.0625 C 366.394531 513.957031 366.835938 516.105469 368.730469 517.558594 C 370.5 518.886719 372.648438 518.757812 374.101562 516.988281 C 375.554688 515.21875 375.492188 513.070312 373.597656 511.683594 C 372.015625 510.542969 371.699219 509.15625 371.636719 507.386719 C 371.449219 501.761719 371.699219 496.328125 374.039062 491.019531 C 377.261719 483.5625 377.199219 476.042969 372.773438 468.90625 C 371.320312 466.503906 371.511719 464.734375 373.785156 462.964844 C 376.25 461.007812 378.460938 458.730469 381.050781 456.898438 C 386.992188 452.601562 392.109375 455.257812 393.375 462.332031 C 396.28125 478.320312 394.449219 494.433594 394.761719 510.480469 C 394.890625 517.746094 394.953125 530.132812 395.015625 543.527344 C 395.015625 570.003906 368.226562 588.199219 343.773438 578.152344 C 324.4375 570.191406 306.617188 558.375 291.328125 543.085938 C 261.0625 512.820312 244.316406 472.695312 244.316406 430.171875 C 244.316406 387.648438 260.996094 347.523438 291.328125 317.257812 C 322.414062 286.550781 362.539062 269.867188 405.0625 269.867188 C 447.585938 269.867188 487.710938 286.550781 517.976562 316.878906 C 548.242188 347.144531 564.988281 387.269531 564.988281 429.792969 C 564.988281 472.316406 548.304688 512.441406 517.976562 542.707031 Z M 449.609375 458.667969 C 449.546875 462.460938 445.882812 464.355469 442.785156 462.207031 C 439.183594 459.679688 436.277344 456.265625 433.8125 452.601562 C 432.167969 450.136719 433.6875 447.230469 436.59375 446.601562 C 437.984375 446.285156 439.4375 446.285156 440.574219 447.042969 C 444.617188 449.695312 447.398438 453.425781 449.546875 457.722656 C 449.734375 458.101562 449.671875 458.542969 449.671875 458.730469 Z M 467.113281 497.464844 C 464.964844 500.878906 461.109375 501.003906 458.835938 497.71875 C 456.9375 494.9375 457.066406 491.90625 458.078125 488.933594 C 458.835938 486.851562 460.351562 485.144531 462.6875 485.144531 C 464.835938 485.144531 466.226562 486.785156 467.175781 488.617188 C 467.933594 490.070312 468.058594 491.652344 467.996094 493.230469 C 467.996094 494.746094 467.871094 496.203125 467.046875 497.464844 Z M 455.546875 422.019531 C 456.179688 419.554688 458.265625 418.417969 460.605469 417.785156 C 461.425781 417.535156 462.246094 417.472656 462.753906 417.34375 C 469.261719 417.851562 473.871094 421.007812 477.539062 425.8125 C 478.675781 427.328125 478.167969 428.71875 477.09375 430.109375 C 474.316406 433.582031 469.324219 434.59375 465.152344 432.320312 C 462.5625 430.929688 460.289062 429.035156 458.140625 427.011719 C 456.6875 425.621094 454.980469 424.167969 455.546875 421.957031 Z M 444.871094 354.160156 C 444.871094 349.039062 447.207031 345.816406 450.492188 346.070312 C 453.589844 346.324219 455.929688 350.683594 455.167969 354.851562 C 454.980469 355.738281 454.726562 356.6875 454.285156 357.507812 C 453.335938 359.59375 451.632812 360.855469 449.355469 360.730469 C 446.890625 360.601562 445.816406 358.707031 445.25 356.558594 C 444.996094 355.675781 444.996094 354.726562 444.933594 354.160156 Z M 365.632812 353.84375 C 365.632812 357.761719 363.800781 360.601562 361.085938 360.792969 C 358.242188 360.984375 355.523438 357.886719 355.273438 354.09375 C 354.957031 349.484375 357.105469 346.070312 360.390625 346.070312 C 363.421875 346.070312 365.632812 349.355469 365.632812 353.84375 Z M 352.871094 425.75 C 350.53125 428.339844 347.878906 430.613281 344.847656 432.257812 C 341.246094 434.214844 336.570312 433.648438 333.726562 430.992188 C 332.019531 429.351562 331.261719 427.453125 332.902344 425.433594 C 336.570312 420.757812 341.117188 417.722656 347.4375 417.40625 C 348.699219 417.472656 350.152344 417.722656 351.480469 418.417969 C 355.019531 420.316406 355.589844 422.714844 352.933594 425.75 Z M 376.566406 452.980469 C 374.292969 456.519531 371.382812 459.554688 367.972656 462.082031 C 366.265625 463.34375 364.179688 463.472656 362.410156 462.207031 C 360.644531 460.941406 360.390625 458.730469 361.273438 457.089844 C 363.296875 453.296875 366.078125 450.011719 369.425781 447.230469 C 370.375 446.472656 371.761719 446.285156 373.027344 446.347656 C 376.628906 446.347656 378.585938 449.824219 376.566406 452.980469 Z M 352.113281 496.769531 C 351.039062 498.664062 349.585938 500.246094 347.183594 499.992188 C 344.847656 499.738281 343.394531 498.285156 342.699219 496.136719 C 341.8125 493.546875 342.128906 490.957031 343.265625 488.554688 C 344.152344 486.660156 345.542969 485.332031 347.878906 485.394531 C 350.21875 485.394531 351.355469 487.039062 352.175781 488.933594 C 352.746094 490.199219 352.996094 491.527344 352.871094 492.914062 C 352.996094 494.304688 352.746094 495.632812 352.050781 496.832031 Z M 352.113281 496.769531 " fill-opacity="1" fill-rule="nonzero"/></g></svg>